HIERARCHY
ROOT Hips
{
	OFFSET 0.000000 0.000000 0.000000
	CHANNELS 6 Xposition Yposition Zposition Zrotation Yrotation Xrotation 
	JOINT LowerBack
	{
		OFFSET 0.000000 0.000000 0.000000
		CHANNELS 3 Zrotation Yrotation Xrotation
		JOINT Spine
		{
			OFFSET 0.028270 2.035590 -0.193380
			CHANNELS 3 Zrotation Yrotation Xrotation
			JOINT Spine1
			{
				OFFSET 0.056720 2.048850 -0.042750
				CHANNELS 3 Zrotation Yrotation Xrotation
				JOINT Neck
				{
					OFFSET 0.000000 0.000000 0.000000
					CHANNELS 3 Zrotation Yrotation Xrotation
					JOINT Neck1
					{
						OFFSET -0.054170 1.746240 0.172020
						CHANNELS 3 Zrotation Yrotation Xrotation
						JOINT Head
						{
							OFFSET 0.104070 1.761360 -0.123970
							CHANNELS 3 Zrotation Yrotation Xrotation
							End Site
							{
								OFFSET 0.000000 0.000000 0.000000
							}
						}
					}
				}
				JOINT LeftShoulder
				{
					OFFSET 0.000000 0.000000 0.000000
					CHANNELS 3 Zrotation Yrotation Xrotation
					JOINT LeftArm
					{
						OFFSET 3.362410 1.200890 -0.311210
						CHANNELS 3 Zrotation Yrotation Xrotation
						JOINT LeftForeArm
						{
							OFFSET 4.983000 -0.000000 -0.000000
							CHANNELS 3 Zrotation Yrotation Xrotation
							JOINT LeftHand
							{
								OFFSET 3.483560 -0.000000 -0.000000
								CHANNELS 3 Zrotation Yrotation Xrotation
								JOINT LeftFingerBase
								{
									OFFSET 0.000000 0.000000 0.000000
									CHANNELS 3 Zrotation Yrotation Xrotation
									JOINT LeftHandIndex1
									{
										OFFSET 0.715260 -0.000000 -0.000000
										CHANNELS 3 Zrotation Yrotation Xrotation
										End Site
										{
											OFFSET 0.000000 0.000000 0.000000
										}
									}
								}
								JOINT LThumb
								{
									OFFSET 0.000000 0.000000 0.000000
									CHANNELS 3 Zrotation Yrotation Xrotation
									End Site
									{
										OFFSET 0.000000 0.000000 0.000000
									}
								}
							}
						}
					}
				}
				JOINT RightShoulder
				{
					OFFSET 0.000000 0.000000 0.000000
					CHANNELS 3 Zrotation Yrotation Xrotation
					JOINT RightArm
					{
						OFFSET -3.136600 1.374050 -0.404650
						CHANNELS 3 Zrotation Yrotation Xrotation
						JOINT RightForeArm
						{
							OFFSET -5.241900 -0.000000 -0.000000
							CHANNELS 3 Zrotation Yrotation Xrotation
							JOINT RightHand
							{
								OFFSET -3.444170 -0.000000 -0.000000
								CHANNELS 3 Zrotation Yrotation Xrotation
								JOINT RightFingerBase
								{
									OFFSET 0.000000 0.000000 0.000000
									CHANNELS 3 Zrotation Yrotation Xrotation
									JOINT RightHandIndex1
									{
										OFFSET -0.622530 -0.000000 -0.000000
										CHANNELS 3 Zrotation Yrotation Xrotation
										End Site
										{
											OFFSET 0.000000 0.000000 0.000000
										}
									}
								}
								JOINT RThumb
								{
									OFFSET 0.000000 0.000000 0.000000
									CHANNELS 3 Zrotation Yrotation Xrotation
									End Site
									{
										OFFSET 0.000000 0.000000 0.000000
									}
								}
							}
						}
					}
				}
			}
		}
	}
}
}
MOTION
Frames: 15
Frame Time: 0.008333
3.219664 16.738278 1.934963 -144.851702 -87.200701 155.607832 5.627264 -3.048832 -3.783415 0.407808 -3.700491 -3.652978 -7.511199 -3.779196 0.321898 9.225859 -6.408777 -5.537332 -4.553158 -0.364941 0.563375 0.000000 0.000000 0.000000 -7.410525 1.676611 1.646140 -60.998499 -17.444164 17.423085 -2.829443 -39.881683 -0.013327 5.593945 0.298005 0.008358 -0.122279 0.155892 0.000000 0.000000 0.000000 0.000000 0.000000 0.000000 0.000000 19.201597 -6.001958 1.076076 65.297537 -7.169016 -14.737898 4.251938 7.972392 0.008233 -1.848040 4.271984 -0.073926 0.121573 -0.036373 -0.000000 0.000000 0.000000 0.000000 0.000000 0.000000 0.000000 
3.044611 16.768923 1.903716 -138.220850 -87.102525 149.037373 5.974709 -3.016886 -3.860420 0.474126 -3.701646 -3.680655 -7.493905 -3.782134 0.316150 9.203668 -6.266905 -5.526808 -4.563957 -0.366066 0.567380 0.000000 0.000000 0.000000 -7.418807 1.749770 1.634377 -61.727575 -16.802509 17.024054 -2.848712 -38.516575 -0.013214 5.688492 0.367378 0.012282 -0.117638 0.149458 0.000000 0.000000 0.000000 0.000000 0.000000 0.000000 0.000000 19.183371 -5.863564 1.050058 65.562181 -6.697280 -14.507851 4.245983 8.061796 0.008170 -1.808705 4.263685 -0.072220 0.120605 -0.036668 -0.000000 0.000000 0.000000 0.000000 0.000000 0.000000 0.000000 
2.875023 16.800471 1.870716 -132.978881 -86.990087 143.851436 6.243819 -2.984957 -3.907819 0.522263 -3.694800 -3.701588 -7.480925 -3.776987 0.307385 9.208072 -6.108042 -5.511949 -4.574606 -0.367166 0.572176 0.000000 0.000000 0.000000 -7.357211 1.806795 1.629528 -62.453282 -16.171796 16.593777 -2.864448 -37.112289 -0.013147 5.777416 0.477738 0.018304 -0.112826 0.143106 0.000000 0.000000 0.000000 0.000000 0.000000 0.000000 0.000000 19.190412 -5.702439 1.027986 65.870531 -6.168276 -14.247365 4.233137 8.179669 0.008106 -1.757840 4.265875 -0.070314 0.119267 -0.037172 -0.000000 0.000000 0.000000 0.000000 0.000000 0.000000 0.000000 
2.710770 16.832589 1.836201 -128.721618 -86.890954 139.643463 6.437630 -2.956503 -3.925329 0.553923 -3.683590 -3.715350 -7.472118 -3.767500 0.297094 9.236956 -5.944985 -5.495550 -4.584977 -0.368210 0.577054 0.000000 0.000000 0.000000 -7.241121 1.842833 1.632801 -63.157101 -15.555306 16.150905 -2.877774 -35.694075 -0.013086 5.846297 0.629071 0.026627 -0.107962 0.136925 0.000000 0.000000 0.000000 0.000000 0.000000 0.000000 0.000000 19.222656 -5.532517 1.009907 66.213877 -5.579127 -13.908843 4.212927 8.337140 0.008031 -1.703997 4.274224 -0.068405 0.117609 -0.037817 -0.000000 0.000000 0.000000 0.000000 0.000000 0.000000 0.000000 
2.551413 16.864990 1.800736 -124.954939 -86.816968 135.921007 6.572490 -2.933283 -3.919773 0.572777 -3.671404 -3.724109 -7.467354 -3.757162 0.283570 9.282142 -5.763153 -5.473638 -4.595057 -0.369222 0.583149 0.000000 0.000000 0.000000 -7.098045 1.863991 1.647290 -63.815546 -14.959345 15.730727 -2.890616 -34.286733 -0.013010 5.881251 0.824379 0.037154 -0.103230 0.131015 0.000000 0.000000 0.000000 0.000000 0.000000 0.000000 0.000000 19.269366 -5.338774 0.995026 66.592301 -4.950725 -13.560082 4.187194 8.528450 0.007974 -1.632405 4.301187 -0.065997 0.115600 -0.038747 -0.000000 0.000000 0.000000 0.000000 0.000000 0.000000 0.000000 
2.396800 16.897527 1.764350 -121.575272 -86.782206 132.575062 6.639551 -2.916002 -3.888493 0.577190 -3.658006 -3.726859 -7.466561 -3.745656 0.268475 9.343563 -5.582527 -5.450327 -4.605208 -0.370202 0.589320 0.000000 0.000000 0.000000 -6.936813 1.865189 1.671508 -64.415716 -14.380749 15.351030 -2.904020 -32.915190 -0.012879 5.869385 1.057367 0.049485 -0.098721 0.125385 0.000000 0.000000 0.000000 0.000000 0.000000 0.000000 0.000000 19.336335 -5.141663 0.983203 66.993008 -4.276220 -13.125793 4.154904 8.766707 0.007916 -1.557398 4.338484 -0.063687 0.113310 -0.039843 -0.000000 0.000000 0.000000 0.000000 0.000000 0.000000 0.000000 
2.246404 16.930059 1.727425 -118.328356 -86.788329 129.350596 6.647966 -2.903928 -3.834116 0.569044 -3.643513 -3.724221 -7.469265 -3.733024 0.252422 9.415828 -5.407904 -5.426447 -4.615502 -0.371148 0.595335 0.000000 0.000000 0.000000 -6.775224 1.851148 1.704675 -64.945684 -13.821683 15.038037 -2.919325 -31.600067 -0.012672 5.800673 1.322055 0.062725 -0.094560 0.120055 0.000000 0.000000 0.000000 0.000000 0.000000 0.000000 0.000000 19.419511 -4.945792 0.973577 67.406858 -3.560281 -12.593902 4.116758 9.054557 0.007862 -1.480817 4.387221 -0.061276 0.110790 -0.041097 -0.000000 0.000000 0.000000 0.000000 0.000000 0.000000 0.000000 
2.099526 16.962526 1.690335 -114.991216 -86.831804 126.028983 6.609612 -2.895270 -3.765750 0.550639 -3.627670 -3.719372 -7.475101 -3.719136 0.231107 9.491485 -5.218940 -5.394168 -4.626437 -0.372168 0.603373 0.000000 0.000000 0.000000 -6.628843 1.820571 1.747609 -65.396150 -13.268524 14.810640 -2.937163 -30.365915 -0.012380 5.667950 1.613250 0.076170 -0.090811 0.115032 0.000000 0.000000 0.000000 0.000000 0.000000 0.000000 0.000000 19.509412 -4.730091 0.965682 67.834355 -2.832877 -12.039573 4.074707 9.387924 0.007832 -1.387206 4.455971 -0.058464 0.108006 -0.042641 -0.000000 0.000000 0.000000 0.000000 0.000000 0.000000 0.000000 
1.955892 16.994886 1.653214 -111.537036 -86.909348 122.578593 6.524995 -2.887891 -3.679170 0.522184 -3.608152 -3.710027 -7.483184 -3.701369 0.210439 9.569962 -5.048305 -5.363034 -4.637648 -0.373158 0.610769 0.000000 0.000000 0.000000 -6.502852 1.783748 1.795306 -65.768352 -12.732349 14.683398 -2.958211 -29.220344 -0.011991 5.471418 1.916086 0.088425 -0.087569 0.110253 0.000000 0.000000 0.000000 0.000000 0.000000 0.000000 0.000000 19.610486 -4.527561 0.958180 68.256208 -2.069581 -11.344891 4.027788 9.775823 0.007803 -1.301588 4.533120 -0.055951 0.105129 -0.044283 -0.000000 0.000000 0.000000 0.000000 0.000000 0.000000 0.000000 
1.814790 17.027056 1.616261 -107.872419 -87.013157 118.912118 6.403303 -2.878566 -3.585956 0.485396 -3.583278 -3.700484 -7.493186 -3.678314 0.183164 9.644828 -4.863539 -5.320319 -4.649849 -0.374291 0.621066 0.000000 0.000000 0.000000 -6.402874 1.732594 1.848665 -66.062039 -12.185093 14.653578 -2.981726 -28.186191 -0.011515 5.213910 2.222519 0.098688 -0.084800 0.105675 0.000000 0.000000 0.000000 0.000000 0.000000 0.000000 0.000000 19.712557 -4.304552 0.951218 68.677595 -1.312184 -10.619820 3.978228 10.213977 0.007792 -1.201545 4.626406 -0.052938 0.102078 -0.046189 -0.000000 0.000000 0.000000 0.000000 0.000000 0.000000 0.000000 
1.676019 17.058998 1.579585 -104.074245 -87.134990 115.102900 6.247752 -2.864376 -3.482088 0.441205 -3.550236 -3.688064 -7.503953 -3.646838 0.156890 9.716094 -4.696379 -5.276992 -4.662186 -0.375410 0.631206 0.000000 0.000000 0.000000 -6.329686 1.687378 1.901966 -66.285306 -11.646990 14.728933 -3.007824 -27.258799 -0.010965 4.907543 2.515763 0.105858 -0.082585 0.101213 0.000000 0.000000 0.000000 0.000000 0.000000 0.000000 0.000000 19.818552 -4.092725 0.942923 69.080709 -0.530045 -9.755141 3.925301 10.703451 0.007780 -1.112186 4.725401 -0.050221 0.099044 -0.048187 -0.000000 0.000000 0.000000 0.000000 0.000000 0.000000 0.000000 
1.539028 17.090558 1.543207 -100.224998 -87.267936 111.239919 6.063429 -2.841874 -3.377667 0.390726 -3.506738 -3.676242 -7.515131 -3.604933 0.125874 9.780459 -4.521627 -5.222882 -4.675007 -0.376643 0.644045 0.000000 0.000000 0.000000 -6.280374 1.640393 1.955123 -66.445301 -11.091554 14.889595 -3.034814 -26.452943 -0.010365 4.566509 2.786847 0.109835 -0.080830 0.096795 0.000000 0.000000 0.000000 0.000000 0.000000 0.000000 0.000000 19.921229 -3.865706 0.933659 69.469561 0.244994 -8.832102 3.870520 11.242730 0.007777 -1.017074 4.832199 -0.047106 0.095965 -0.050381 -0.000000 0.000000 0.000000 0.000000 0.000000 0.000000 0.000000 
1.403378 17.121628 1.507156 -96.513392 -87.406412 107.515288 5.854005 -2.807950 -3.276213 0.334968 -3.450298 -3.666100 -7.526214 -3.550246 0.088648 9.836897 -4.331516 -5.154890 -4.688073 -0.378006 0.660448 0.000000 0.000000 0.000000 -6.249610 1.592908 2.006588 -66.552126 -10.507602 15.115469 -3.061212 -25.772438 -0.009741 4.210075 3.026196 0.110514 -0.079469 0.092345 0.000000 0.000000 0.000000 0.000000 0.000000 0.000000 0.000000 20.016900 -3.614720 0.923465 69.841686 1.002615 -7.870288 3.814445 11.832573 0.007779 -0.912799 4.942095 -0.043490 0.092848 -0.052777 -0.000000 0.000000 0.000000 0.000000 0.000000 0.000000 0.000000 
1.269036 17.152011 1.471439 -93.189378 -87.545069 104.177748 5.625573 -2.761025 -3.176147 0.275877 -3.379833 -3.653934 -7.535890 -3.481250 0.058639 9.887886 -4.170542 -5.091892 -4.699800 -0.379224 0.675236 0.000000 0.000000 0.000000 -6.236552 1.583887 2.049237 -66.616226 -9.937813 15.414816 -3.086776 -25.195217 -0.009126 3.861483 3.222641 0.108398 -0.078561 0.087796 0.000000 0.000000 0.000000 0.000000 0.000000 0.000000 0.000000 20.110512 -3.384379 0.909089 70.178211 1.797452 -6.745763 3.756502 12.458479 0.007773 -0.829702 5.050159 -0.040673 0.089951 -0.055206 -0.000000 0.000000 0.000000 0.000000 0.000000 0.000000 0.000000 
1.135570 17.181544 1.435994 -90.509954 -87.684331 101.490132 5.381188 -2.698766 -3.086496 0.214007 -3.293832 -3.646146 -7.544864 -3.397255 0.017742 9.930210 -3.969781 -5.007292 -4.711321 -0.380615 0.695757 0.000000 0.000000 0.000000 -6.230145 1.574379 2.089171 -66.646894 -9.317064 15.729057 -3.108460 -24.745221 -0.008543 3.538697 3.377669 0.104585 -0.077842 0.083129 0.000000 0.000000 0.000000 0.000000 0.000000 0.000000 0.000000 20.189366 -3.103482 0.894323 70.499089 2.548516 -5.658321 3.698504 13.136283 0.007772 -0.721814 5.154961 -0.036455 0.086948 -0.057895 -0.000000 0.000000 0.000000 0.000000 0.000000 0.000000 0.000000 
